%FSLAX45Y45*%
G04 Gerber Fmt 4.5, Leading zero omitted, Abs format (unit mm)*
G04 Created by KiCad (PCBNEW (6.0.6-1)-1) date 2022-07-24 16:47:32*
%MOMM*%
%LPD*%
G01*
G04 APERTURE LIST*
%ADD10C,0.200000*%
G04 APERTURE END LIST*
D10*
X10320619Y-15599476D02*
X10320619Y-15399476D01*
X10368238Y-15399476D01*
X10396810Y-15409000D01*
X10415857Y-15428048D01*
X10425381Y-15447095D01*
X10434905Y-15485190D01*
X10434905Y-15513762D01*
X10425381Y-15551857D01*
X10415857Y-15570905D01*
X10396810Y-15589952D01*
X10368238Y-15599476D01*
X10320619Y-15599476D01*
X10520619Y-15599476D02*
X10520619Y-15466143D01*
X10520619Y-15504238D02*
X10530143Y-15485190D01*
X10539667Y-15475667D01*
X10558714Y-15466143D01*
X10577762Y-15466143D01*
X10644429Y-15599476D02*
X10644429Y-15466143D01*
X10644429Y-15399476D02*
X10634905Y-15409000D01*
X10644429Y-15418524D01*
X10653952Y-15409000D01*
X10644429Y-15399476D01*
X10644429Y-15418524D01*
X10768238Y-15599476D02*
X10749190Y-15589952D01*
X10739667Y-15570905D01*
X10739667Y-15399476D01*
X10873000Y-15599476D02*
X10853952Y-15589952D01*
X10844429Y-15570905D01*
X10844429Y-15399476D01*
X11101571Y-15599476D02*
X11101571Y-15399476D01*
X11168238Y-15542333D01*
X11234905Y-15399476D01*
X11234905Y-15599476D01*
X11415857Y-15599476D02*
X11415857Y-15494714D01*
X11406333Y-15475667D01*
X11387286Y-15466143D01*
X11349190Y-15466143D01*
X11330143Y-15475667D01*
X11415857Y-15589952D02*
X11396809Y-15599476D01*
X11349190Y-15599476D01*
X11330143Y-15589952D01*
X11320619Y-15570905D01*
X11320619Y-15551857D01*
X11330143Y-15532809D01*
X11349190Y-15523286D01*
X11396809Y-15523286D01*
X11415857Y-15513762D01*
X11511095Y-15466143D02*
X11511095Y-15666143D01*
X11511095Y-15475667D02*
X11530143Y-15466143D01*
X11568238Y-15466143D01*
X11587286Y-15475667D01*
X11596809Y-15485190D01*
X11606333Y-15504238D01*
X11606333Y-15561381D01*
X11596809Y-15580428D01*
X11587286Y-15589952D01*
X11568238Y-15599476D01*
X11530143Y-15599476D01*
X11511095Y-15589952D01*
X11692048Y-15580428D02*
X11701571Y-15589952D01*
X11692048Y-15599476D01*
X11682524Y-15589952D01*
X11692048Y-15580428D01*
X11692048Y-15599476D01*
X11692048Y-15475667D02*
X11701571Y-15485190D01*
X11692048Y-15494714D01*
X11682524Y-15485190D01*
X11692048Y-15475667D01*
X11692048Y-15494714D01*
M02*
