M48
; DRILL file {KiCad (6.0.6-1)-1} date Sunday, July 24, 2022 at 04:47:31 PM
; FORMAT={-:-/ absolute / inch / decimal}
; #@! TF.CreationDate,2022-07-24T16:47:31-04:00
; #@! TF.GenerationSoftware,Kicad,Pcbnew,(6.0.6-1)-1
; #@! TF.FileFunction,Plated,1,2,PTH
FMAT,2
INCH
; #@! TA.AperFunction,Plated,PTH,ViaDrill
T1C0.0157
; #@! TA.AperFunction,Plated,PTH,ComponentDrill
T2C0.0394
; #@! TA.AperFunction,Plated,PTH,ComponentDrill
T3C0.0400
%
G90
G05
T1
X4.03Y-2.77
X4.03Y-2.87
X4.03Y-2.97
X4.03Y-3.07
X4.03Y-3.17
X4.03Y-3.27
X4.03Y-3.37
X4.03Y-3.47
X4.03Y-3.57
X4.03Y-3.67
X4.03Y-3.77
X4.03Y-3.87
X4.03Y-3.97
X4.03Y-4.07
X4.03Y-4.17
X4.03Y-4.27
X4.03Y-4.37
X4.03Y-4.47
X4.03Y-4.57
X4.03Y-4.67
X4.03Y-4.77
X4.03Y-4.87
X4.03Y-4.97
X4.03Y-5.07
X4.03Y-5.17
X4.03Y-5.27
X4.13Y-3.87
X4.13Y-3.97
X4.13Y-4.07
X4.13Y-4.17
X4.13Y-4.27
X4.13Y-4.37
X4.13Y-4.47
X4.13Y-4.57
X4.13Y-4.67
X4.13Y-4.77
X4.13Y-4.87
X4.13Y-4.97
X4.13Y-5.07
X4.13Y-5.17
X4.13Y-5.27
X4.23Y-2.97
X4.23Y-3.07
X4.23Y-3.17
X4.23Y-3.27
X4.23Y-3.37
X4.23Y-3.47
X4.23Y-3.87
X4.23Y-3.97
X4.23Y-4.07
X4.23Y-4.27
X4.23Y-4.37
X4.23Y-4.47
X4.23Y-4.57
X4.23Y-4.67
X4.23Y-4.77
X4.23Y-4.87
X4.23Y-4.97
X4.23Y-5.07
X4.23Y-5.17
X4.23Y-5.27
X4.23Y-5.37
X4.2818Y-4.17
X4.3Y-5.63
X4.31Y-3.39
X4.32Y-4.53
X4.326Y-3.34
X4.33Y-3.87
X4.33Y-3.97
X4.33Y-4.07
X4.35Y-4.22
X4.4Y-3.41
X4.45Y-3.41
X4.45Y-4.2
X4.47Y-4.54
X4.47Y-5.57
X4.51Y-5.57
X4.53Y-3.57
X4.53Y-3.67
X4.53Y-3.77
X4.53Y-3.87
X4.53Y-3.97
X4.53Y-4.07
X4.53Y-4.37
X4.53Y-4.67
X4.53Y-4.77
X4.53Y-4.87
X4.53Y-4.97
X4.53Y-5.07
X4.53Y-5.17
X4.53Y-5.27
X4.53Y-5.37
X4.54Y-4.25
X4.6Y-5.67
X4.61Y-4.28
X4.62Y-4.14
X4.63Y-4.57
X4.63Y-4.67
X4.63Y-4.77
X4.63Y-4.87
X4.63Y-4.97
X4.63Y-5.07
X4.63Y-5.17
X4.63Y-5.27
X4.63Y-5.37
X4.63Y-5.47
X4.63Y-5.57
X4.68Y-4.14
X4.68Y-4.25
X4.73Y-2.87
X4.73Y-2.97
X4.73Y-3.07
X4.73Y-3.17
X4.73Y-4.47
X4.73Y-4.57
X4.73Y-4.67
X4.73Y-4.77
X4.73Y-4.87
X4.73Y-4.97
X4.73Y-5.07
X4.73Y-5.17
X4.73Y-5.27
X4.73Y-5.37
X4.73Y-5.47
X4.7345Y-4.1728
X4.79Y-4.19
X4.82Y-4.16
X4.83Y-3.17
X4.83Y-3.27
X4.83Y-3.67
X4.83Y-3.77
X4.83Y-3.87
X4.83Y-3.97
X4.83Y-4.07
X4.83Y-4.37
X4.83Y-4.47
X4.83Y-4.57
X4.83Y-4.67
X4.83Y-4.77
X4.83Y-4.87
X4.83Y-4.97
X4.83Y-5.07
X4.83Y-5.17
X4.83Y-5.27
X4.83Y-5.37
X4.83Y-5.47
X4.8791Y-5.6409
X4.8791Y-5.6809
X4.88Y-5.6
X4.93Y-3.17
X4.93Y-3.27
X4.93Y-3.37
X4.93Y-3.77
X4.93Y-3.87
X4.93Y-3.97
X4.93Y-4.07
X4.93Y-4.47
X4.93Y-4.57
X4.93Y-4.67
X4.93Y-4.77
X4.93Y-4.87
X4.93Y-4.97
X4.93Y-5.07
X4.93Y-5.17
X4.93Y-5.27
X4.93Y-5.37
X4.93Y-5.47
X4.95Y-4.35
X4.95Y-5.66
X5.03Y-3.97
X5.03Y-4.13
X5.11Y-3.48
X5.11Y-4.1
X5.13Y-3.97
X5.13Y-5.66
X5.1398Y-3.5502
X5.1552Y-3.3748
X5.1557Y-4.3085
X5.1647Y-3.6153
X5.22Y-4.07
X5.2211Y-3.53
X5.23Y-5.66
X5.2802Y-3.6898
X5.31Y-4.04
X5.3112Y-4.39
X5.3112Y-5.66
X5.33Y-4.57
X5.33Y-4.67
X5.33Y-4.77
X5.33Y-4.87
X5.33Y-4.97
X5.33Y-5.07
X5.33Y-5.17
X5.33Y-5.27
X5.33Y-5.37
X5.33Y-5.47
X5.34Y-3.1
X5.34Y-3.78
X5.35Y-4.34
X5.3695Y-3.45
X5.41Y-4.01
X5.41Y-4.34
X5.42Y-5.65
X5.43Y-3.86
X5.43Y-4.47
X5.43Y-4.57
X5.43Y-4.67
X5.43Y-4.77
X5.43Y-4.87
X5.43Y-4.97
X5.43Y-5.07
X5.43Y-5.17
X5.43Y-5.27
X5.43Y-5.37
X5.43Y-5.47
X5.43Y-5.57
X5.44Y-2.91
X5.45Y-4.34
X5.5Y-3.17
X5.5Y-3.22
X5.53Y-4.47
X5.53Y-4.57
X5.53Y-4.67
X5.53Y-4.77
X5.53Y-4.87
X5.53Y-4.97
X5.53Y-5.07
X5.53Y-5.17
X5.53Y-5.27
X5.53Y-5.37
X5.53Y-5.47
X5.53Y-5.66
X5.5494Y-4.34
X5.5799Y-4.0099
X5.59Y-3.15
X5.6073Y-4.0382
X5.61Y-5.66
X5.63Y-4.37
X5.6301Y-4.0702
X5.66Y-4.1
X5.66Y-5.66
X5.68Y-4.3985
X5.69Y-4.13
X5.7Y-3.44
X5.73Y-3.32
X5.74Y-4.46
X5.74Y-5.66
X5.78Y-4.31
X5.78Y-4.43
X5.79Y-3.42
X5.79Y-3.49
X5.83Y-3.32
X5.83Y-3.37
X5.83Y-4.67
X5.83Y-4.77
X5.83Y-4.87
X5.83Y-4.97
X5.83Y-5.07
X5.83Y-5.17
X5.83Y-5.27
X5.83Y-5.37
X5.8388Y-4.4663
X5.85Y-3.5
X5.85Y-3.58
X5.87Y-4.02
X5.8709Y-5.6591
X5.9Y-3.25
X5.92Y-4.13
X5.9215Y-5.66
X5.9285Y-3.49
X5.93Y-4.57
X5.93Y-4.67
X5.93Y-4.77
X5.93Y-4.87
X5.93Y-4.97
X5.93Y-5.07
X5.93Y-5.17
X5.93Y-5.27
X5.93Y-5.37
X5.93Y-5.47
X5.97Y-3.25
X5.98Y-4.4085
X5.991Y-3.5346
X6.02Y-3.58
X6.03Y-3.7
X6.03Y-4.02
X6.03Y-4.57
X6.03Y-4.67
X6.03Y-4.77
X6.03Y-4.87
X6.03Y-4.97
X6.03Y-5.07
X6.03Y-5.17
X6.03Y-5.27
X6.03Y-5.37
X6.03Y-5.47
X6.03Y-5.57
X6.04Y-4.31
X6.04Y-5.66
X6.05Y-3.5
X6.0883Y-4.13
X6.1164Y-4.34
X6.12Y-3.11
X6.13Y-4.57
X6.13Y-4.67
X6.13Y-4.77
X6.13Y-4.87
X6.13Y-4.97
X6.13Y-5.07
X6.13Y-5.17
X6.13Y-5.27
X6.13Y-5.37
X6.13Y-5.47
X6.15Y-4.31
X6.17Y-5.66
X6.1702Y-4.3702
X6.2Y-3.68
X6.23Y-4.32
X6.23Y-4.37
X6.23Y-4.41
X6.25Y-5.66
X6.29Y-4.12
X6.3Y-3.72
X6.31Y-3.18
X6.33Y-4.31
X6.35Y-3.18
X6.3515Y-5.59
X6.36Y-3.83
X6.38Y-4.1315
X6.3898Y-3.3402
X6.4Y-5.66
X6.4198Y-4.3402
X6.42Y-4.41
X6.43Y-3.18
X6.4698Y-3.3402
X6.47Y-4.3085
X6.48Y-4.0715
X6.49Y-3.54
X6.5Y-5.66
X6.5098Y-4.4302
X6.52Y-3.18
X6.52Y-3.45
X6.52Y-3.57
X6.5337Y-4.5
X6.55Y-3.6
X6.56Y-4.02
X6.58Y-3.63
X6.58Y-4.34
X6.6Y-5.66
X6.61Y-3.66
X6.62Y-4.5217
X6.63Y-4.03
X6.63Y-4.77
X6.63Y-4.87
X6.63Y-4.97
X6.63Y-5.07
X6.63Y-5.17
X6.63Y-5.27
X6.63Y-5.37
X6.63Y-5.47
X6.64Y-3.69
X6.64Y-4.31
X6.65Y-4.41
X6.69Y-3.75
X6.69Y-4.56
X6.72Y-3.99
X6.73Y-4.67
X6.73Y-4.77
X6.73Y-4.87
X6.73Y-4.97
X6.73Y-5.07
X6.73Y-5.17
X6.73Y-5.27
X6.73Y-5.37
X6.73Y-5.47
X6.73Y-5.57
X6.73Y-5.66
X6.74Y-4.31
X6.75Y-2.94
X6.76Y-3.77
X6.76Y-3.77
X6.78Y-4.03
X6.79Y-4.09
X6.82Y-4.31
X6.83Y-4.09
X6.83Y-4.57
X6.83Y-4.67
X6.83Y-4.77
X6.83Y-4.87
X6.83Y-4.97
X6.83Y-5.07
X6.83Y-5.17
X6.83Y-5.27
X6.83Y-5.37
X6.85Y-4.34
X6.8658Y-3.1042
X6.8718Y-4.3727
X6.88Y-3.2
X6.91Y-4.09
X6.92Y-4.31
X6.93Y-4.67
X6.93Y-4.77
X6.93Y-4.87
X6.93Y-4.97
X6.93Y-5.07
X6.93Y-5.17
X6.93Y-5.27
X6.9602Y-4.3102
X6.9844Y-5.39
X6.9995Y-4.3099
X7.0Y-2.71
X7.0Y-5.66
X7.0002Y-4.3802
X7.03Y-3.27
X7.04Y-2.71
X7.05Y-3.38
X7.06Y-3.1
X7.06Y-4.03
X7.0642Y-5.4358
X7.0642Y-5.4858
X7.0642Y-5.5358
X7.0642Y-5.5858
X7.0642Y-5.6358
X7.0642Y-5.6858
X7.08Y-2.71
X7.09Y-4.09
X7.095Y-5.395
X7.12Y-2.71
X7.13Y-3.94
X7.13Y-5.36
X7.15Y-4.32
X7.16Y-2.71
X7.16Y-5.33
X7.1702Y-4.3598
X7.18Y-5.48
X7.19Y-5.3
X7.25Y-2.82
X7.25Y-3.01
X7.29Y-4.39
X7.31Y-5.48
X7.3189Y-4.2817
X7.32Y-5.67
X7.33Y-4.33
X7.33Y-4.67
X7.33Y-4.77
X7.33Y-4.87
X7.33Y-4.97
X7.33Y-5.07
X7.34Y-4.2485
X7.3515Y-5.63
X7.37Y-4.22
X7.37Y-4.3615
X7.38Y-5.58
X7.4Y-4.4
X7.41Y-4.19
X7.43Y-3.27
X7.43Y-3.47
X7.43Y-4.57
X7.43Y-4.67
X7.43Y-4.77
X7.43Y-4.87
X7.43Y-4.97
X7.43Y-5.07
X7.43Y-5.17
X7.46Y-3.55
X7.53Y-3.27
X7.53Y-3.67
X7.53Y-3.77
X7.53Y-3.87
X7.53Y-4.07
X7.53Y-4.37
X7.53Y-4.47
X7.53Y-4.57
X7.53Y-4.67
X7.53Y-4.77
X7.53Y-4.87
X7.53Y-4.97
X7.53Y-5.07
X7.53Y-5.17
X7.57Y-5.59
X7.63Y-3.27
X7.63Y-3.47
X7.63Y-3.67
X7.63Y-3.77
X7.63Y-3.87
X7.63Y-3.97
X7.63Y-4.07
X7.63Y-4.27
X7.63Y-4.37
X7.63Y-4.47
X7.63Y-4.57
X7.63Y-4.67
X7.63Y-4.77
X7.63Y-4.87
X7.63Y-4.97
X7.63Y-5.07
X7.63Y-5.17
X7.66Y-5.41
X7.68Y-5.65
X7.73Y-2.97
X7.73Y-3.37
X7.73Y-3.67
X7.73Y-3.77
X7.73Y-3.87
X7.73Y-3.97
X7.73Y-4.07
X7.73Y-4.27
X7.73Y-4.37
X7.73Y-4.47
X7.73Y-4.57
X7.73Y-4.67
X7.73Y-4.77
X7.73Y-4.87
X7.73Y-4.97
X7.73Y-5.07
X7.73Y-5.17
X7.77Y-2.82
X7.8098Y-4.1398
X7.83Y-3.07
X7.83Y-4.27
X7.83Y-4.37
X7.83Y-4.47
X7.83Y-4.57
X7.83Y-4.67
X7.83Y-4.77
X7.83Y-4.87
X7.83Y-4.97
X7.83Y-5.07
X7.85Y-4.14
X7.91Y-5.32
T2
X4.13Y-3.26
X4.5929Y-3.3143
X4.6636Y-3.2436
X4.6636Y-3.385
X4.7343Y-3.3143
X4.7343Y-3.4557
X4.805Y-3.385
X4.805Y-3.5264
X4.8757Y-3.4557
X4.8757Y-3.5972
X4.9464Y-3.5264
X4.9464Y-3.6679
X5.0172Y-3.5972
X5.0172Y-3.7386
X5.0879Y-3.6679
X5.0879Y-3.8093
X5.1586Y-3.7386
X5.1586Y-3.88
X5.2293Y-3.8093
X5.2293Y-3.9507
X5.3Y-3.88
X5.3029Y-3.3143
X5.3736Y-3.2436
X5.3736Y-3.385
X5.4443Y-3.3143
X5.4443Y-3.4557
X5.515Y-3.385
X5.515Y-3.5264
X5.5857Y-3.4557
X5.5857Y-3.5972
X5.6564Y-3.5264
X5.6564Y-3.6679
X5.7272Y-3.5972
X5.7272Y-3.7386
X5.7979Y-3.6679
X5.7979Y-3.8093
X5.8686Y-3.7386
X5.8686Y-3.88
X5.9393Y-3.8093
X5.9393Y-3.9507
X6.0064Y-3.3169
X6.01Y-3.88
X6.0772Y-3.2462
X6.0772Y-3.3876
X6.1479Y-3.3169
X6.1479Y-3.4583
X6.2186Y-3.3876
X6.2186Y-3.529
X6.2893Y-3.4583
X6.2893Y-3.5997
X6.36Y-3.529
X6.36Y-3.6704
X6.4307Y-3.5997
X6.4307Y-3.7411
X6.5014Y-3.6704
X6.5014Y-3.8119
X6.5721Y-3.7411
X6.5721Y-3.8826
X6.6428Y-3.8119
X6.6428Y-3.9533
X6.7136Y-3.8826
X6.7864Y-3.3869
X6.8572Y-3.3162
X6.8572Y-3.4576
X6.9279Y-3.3869
X6.9279Y-3.5283
X6.9986Y-3.4576
X6.9986Y-3.599
X7.0693Y-3.5283
X7.0693Y-3.6697
X7.14Y-3.599
X7.14Y-3.7404
X7.2107Y-3.6697
X7.2107Y-3.8111
X7.2814Y-3.7404
X7.2814Y-3.8819
X7.3521Y-3.8111
X7.3521Y-3.9526
X7.4228Y-3.8819
X7.4228Y-4.0233
X7.4936Y-3.9526
X7.57Y-3.4
X7.77Y-3.25
X7.77Y-3.53
T3
X4.2989Y-2.8116
X4.2989Y-3.0084
X4.3973Y-2.8116
X4.3973Y-3.0084
X4.4957Y-2.8116
X4.4957Y-3.0084
X4.5942Y-2.8116
X4.5942Y-3.0084
X4.8973Y-2.8116
X4.8973Y-3.0084
X4.9957Y-2.8116
X4.9957Y-3.0084
X5.0942Y-2.8116
X5.0942Y-3.0084
X5.1926Y-2.8116
X5.1926Y-3.0084
X5.291Y-2.8116
X5.291Y-3.0084
X5.3894Y-2.8116
X5.3894Y-3.0084
X5.4879Y-2.8116
X5.4879Y-3.0084
X5.5863Y-2.8116
X5.5863Y-3.0084
X5.6847Y-2.8116
X5.6847Y-3.0084
X5.7831Y-2.8116
X5.7831Y-3.0084
X5.8816Y-2.8116
X5.8816Y-3.0084
X5.98Y-2.8116
X5.98Y-3.0084
X6.0784Y-2.8116
X6.0784Y-3.0084
X6.1769Y-2.8116
X6.1769Y-3.0084
X6.2753Y-2.8116
X6.2753Y-3.0084
X6.3737Y-2.8116
X6.3737Y-3.0084
X6.4721Y-2.8116
X6.4721Y-3.0084
X6.5706Y-2.8116
X6.5706Y-3.0084
X6.669Y-2.8116
X6.669Y-3.0084
X6.7674Y-2.8116
X6.7674Y-3.0084
X6.8658Y-2.8116
X6.8658Y-3.0084
X6.9643Y-2.8116
X6.9643Y-3.0084
X7.0627Y-2.8116
X7.0627Y-3.0084
X7.3658Y-2.8116
X7.3658Y-3.0084
X7.4643Y-2.8116
X7.4643Y-3.0084
X7.5627Y-2.8116
X7.5627Y-3.0084
X7.6611Y-2.8116
X7.6611Y-3.0084
T0
M30
