%TF.GenerationSoftware,KiCad,Pcbnew,(6.0.6-1)-1*%
%TF.CreationDate,2022-07-24T16:47:29-04:00*%
%TF.ProjectId,SNES_logicadapter,534e4553-5f6c-46f6-9769-636164617074,rev?*%
%TF.SameCoordinates,Original*%
%TF.FileFunction,Profile,NP*%
%FSLAX46Y46*%
G04 Gerber Fmt 4.6, Leading zero omitted, Abs format (unit mm)*
G04 Created by KiCad (PCBNEW (6.0.6-1)-1) date 2022-07-24 16:47:29*
%MOMM*%
%LPD*%
G01*
G04 APERTURE LIST*
%TA.AperFunction,Profile*%
%ADD10C,0.100000*%
%TD*%
G04 APERTURE END LIST*
D10*
%TO.C,CON1*%
X121680000Y-141610000D02*
X121680000Y-152140000D01*
X106680000Y-142240000D02*
X106680000Y-152140000D01*
X184880000Y-152840000D02*
X195980000Y-152840000D01*
X181680000Y-152140000D02*
X181680000Y-141610000D01*
X119180000Y-152140000D02*
X119180000Y-141610000D01*
X122380000Y-152840000D02*
X180980000Y-152840000D01*
X181680000Y-141610000D02*
X184180000Y-141610000D01*
X184180000Y-141610000D02*
X184180000Y-152140000D01*
X119180000Y-141610000D02*
X121680000Y-141610000D01*
X196680000Y-152140000D02*
X196680000Y-142240000D01*
X107380000Y-152840000D02*
X118480000Y-152840000D01*
X118480000Y-152840000D02*
G75*
G03*
X119180000Y-152140000I0J700000D01*
G01*
X121680000Y-152140000D02*
G75*
G03*
X122380000Y-152840000I700000J0D01*
G01*
X195980000Y-152840000D02*
G75*
G03*
X196680000Y-152140000I0J700000D01*
G01*
X184180000Y-152140000D02*
G75*
G03*
X184880000Y-152840000I700000J0D01*
G01*
X106680000Y-152140000D02*
G75*
G03*
X107380000Y-152840000I700000J0D01*
G01*
X180980000Y-152840000D02*
G75*
G03*
X181680000Y-152140000I0J700000D01*
G01*
%TO.C,FC_*%
X202680000Y-137240000D02*
X196680000Y-137240000D01*
X100680000Y-72240000D02*
X100680000Y-137240000D01*
X202680000Y-137240000D02*
X202680000Y-72240000D01*
X196680000Y-137240000D02*
X196680000Y-142240000D01*
X197680000Y-67240000D02*
X105680000Y-67240000D01*
X106680000Y-137240000D02*
X106680000Y-142240000D01*
X100680000Y-137240000D02*
X106680000Y-137240000D01*
X105680000Y-67240000D02*
G75*
G03*
X100680000Y-72240000I0J-5000000D01*
G01*
X202680000Y-72240000D02*
G75*
G03*
X197680000Y-67240000I-5000000J0D01*
G01*
%TD*%
M02*
