%TF.GenerationSoftware,KiCad,Pcbnew,(6.0.6-1)-1*%
%TF.CreationDate,2022-07-24T16:47:29-04:00*%
%TF.ProjectId,SNES_logicadapter,534e4553-5f6c-46f6-9769-636164617074,rev?*%
%TF.SameCoordinates,Original*%
%TF.FileFunction,Soldermask,Top*%
%TF.FilePolarity,Negative*%
%FSLAX46Y46*%
G04 Gerber Fmt 4.6, Leading zero omitted, Abs format (unit mm)*
G04 Created by KiCad (PCBNEW (6.0.6-1)-1) date 2022-07-24 16:47:29*
%MOMM*%
%LPD*%
G01*
G04 APERTURE LIST*
G04 Aperture macros list*
%AMRoundRect*
0 Rectangle with rounded corners*
0 $1 Rounding radius*
0 $2 $3 $4 $5 $6 $7 $8 $9 X,Y pos of 4 corners*
0 Add a 4 corners polygon primitive as box body*
4,1,4,$2,$3,$4,$5,$6,$7,$8,$9,$2,$3,0*
0 Add four circle primitives for the rounded corners*
1,1,$1+$1,$2,$3*
1,1,$1+$1,$4,$5*
1,1,$1+$1,$6,$7*
1,1,$1+$1,$8,$9*
0 Add four rect primitives between the rounded corners*
20,1,$1+$1,$2,$3,$4,$5,0*
20,1,$1+$1,$4,$5,$6,$7,0*
20,1,$1+$1,$6,$7,$8,$9,0*
20,1,$1+$1,$8,$9,$2,$3,0*%
%AMHorizOval*
0 Thick line with rounded ends*
0 $1 width*
0 $2 $3 position (X,Y) of the first rounded end (center of the circle)*
0 $4 $5 position (X,Y) of the second rounded end (center of the circle)*
0 Add line between two ends*
20,1,$1,$2,$3,$4,$5,0*
0 Add two circle primitives to create the rounded ends*
1,1,$1,$2,$3*
1,1,$1,$4,$5*%
%AMRotRect*
0 Rectangle, with rotation*
0 The origin of the aperture is its center*
0 $1 length*
0 $2 width*
0 $3 Rotation angle, in degrees counterclockwise*
0 Add horizontal line*
21,1,$1,$2,0,0,$3*%
G04 Aperture macros list end*
%ADD10C,0.300000*%
%ADD11C,0.010000*%
%ADD12RotRect,1.700000X1.700000X225.000000*%
%ADD13HorizOval,1.700000X0.000000X0.000000X0.000000X0.000000X0*%
%ADD14C,2.000000*%
%ADD15RoundRect,0.250000X0.450000X-0.262500X0.450000X0.262500X-0.450000X0.262500X-0.450000X-0.262500X0*%
%ADD16R,1.500000X7.000000*%
%ADD17R,2.000000X7.000000*%
%ADD18RoundRect,0.243750X0.456250X-0.243750X0.456250X0.243750X-0.456250X0.243750X-0.456250X-0.243750X0*%
%ADD19C,1.524000*%
G04 APERTURE END LIST*
D10*
X119802571Y-136960285D02*
X118302571Y-136960285D01*
X118302571Y-136388857D01*
X118374000Y-136246000D01*
X118445428Y-136174571D01*
X118588285Y-136103142D01*
X118802571Y-136103142D01*
X118945428Y-136174571D01*
X119016857Y-136246000D01*
X119088285Y-136388857D01*
X119088285Y-136960285D01*
X119374000Y-135531714D02*
X119374000Y-134817428D01*
X119802571Y-135674571D02*
X118302571Y-135174571D01*
X119802571Y-134674571D01*
X119802571Y-133317428D02*
X119088285Y-133817428D01*
X119802571Y-134174571D02*
X118302571Y-134174571D01*
X118302571Y-133603142D01*
X118374000Y-133460285D01*
X118445428Y-133388857D01*
X118588285Y-133317428D01*
X118802571Y-133317428D01*
X118945428Y-133388857D01*
X119016857Y-133460285D01*
X119088285Y-133603142D01*
X119088285Y-134174571D01*
X119802571Y-132674571D02*
X118302571Y-132674571D01*
X118302571Y-132317428D01*
X118374000Y-132103142D01*
X118516857Y-131960285D01*
X118659714Y-131888857D01*
X118945428Y-131817428D01*
X119159714Y-131817428D01*
X119445428Y-131888857D01*
X119588285Y-131960285D01*
X119731142Y-132103142D01*
X119802571Y-132317428D01*
X119802571Y-132674571D01*
X118231142Y-130103142D02*
X120159714Y-131388857D01*
X119802571Y-129603142D02*
X118302571Y-129603142D01*
X118302571Y-129031714D01*
X118374000Y-128888857D01*
X118445428Y-128817428D01*
X118588285Y-128746000D01*
X118802571Y-128746000D01*
X118945428Y-128817428D01*
X119016857Y-128888857D01*
X119088285Y-129031714D01*
X119088285Y-129603142D01*
X119374000Y-128174571D02*
X119374000Y-127460285D01*
X119802571Y-128317428D02*
X118302571Y-127817428D01*
X119802571Y-127317428D01*
X118302571Y-126960285D02*
X119802571Y-126603142D01*
X118731142Y-126317428D01*
X119802571Y-126031714D01*
X118302571Y-125674571D01*
X119802571Y-124246000D02*
X119088285Y-124746000D01*
X119802571Y-125103142D02*
X118302571Y-125103142D01*
X118302571Y-124531714D01*
X118374000Y-124388857D01*
X118445428Y-124317428D01*
X118588285Y-124246000D01*
X118802571Y-124246000D01*
X118945428Y-124317428D01*
X119016857Y-124388857D01*
X119088285Y-124531714D01*
X119088285Y-125103142D01*
X118231142Y-122531714D02*
X120159714Y-123817428D01*
X118302571Y-122174571D02*
X119802571Y-121817428D01*
X118731142Y-121531714D01*
X119802571Y-121246000D01*
X118302571Y-120888857D01*
X119802571Y-119460285D02*
X119088285Y-119960285D01*
X119802571Y-120317428D02*
X118302571Y-120317428D01*
X118302571Y-119746000D01*
X118374000Y-119603142D01*
X118445428Y-119531714D01*
X118588285Y-119460285D01*
X118802571Y-119460285D01*
X118945428Y-119531714D01*
X119016857Y-119603142D01*
X119088285Y-119746000D01*
X119088285Y-120317428D01*
X119374000Y-118888857D02*
X119374000Y-118174571D01*
X119802571Y-119031714D02*
X118302571Y-118531714D01*
X119802571Y-118031714D01*
X119802571Y-117531714D02*
X118302571Y-117531714D01*
X119374000Y-117031714D01*
X118302571Y-116531714D01*
X119802571Y-116531714D01*
X121431857Y-130710285D02*
X121431857Y-130210285D01*
X122217571Y-129996000D02*
X122217571Y-130710285D01*
X120717571Y-130710285D01*
X120717571Y-129996000D01*
X120717571Y-129496000D02*
X122217571Y-128496000D01*
X120717571Y-128496000D02*
X122217571Y-129496000D01*
X122217571Y-127924571D02*
X120717571Y-127924571D01*
X120717571Y-127353142D01*
X120789000Y-127210285D01*
X120860428Y-127138857D01*
X121003285Y-127067428D01*
X121217571Y-127067428D01*
X121360428Y-127138857D01*
X121431857Y-127210285D01*
X121503285Y-127353142D01*
X121503285Y-127924571D01*
X121789000Y-126496000D02*
X121789000Y-125781714D01*
X122217571Y-126638857D02*
X120717571Y-126138857D01*
X122217571Y-125638857D01*
X122217571Y-125138857D02*
X120717571Y-125138857D01*
X122217571Y-124281714D01*
X120717571Y-124281714D01*
X122217571Y-123567428D02*
X120717571Y-123567428D01*
X120717571Y-123210285D01*
X120789000Y-122996000D01*
X120931857Y-122853142D01*
X121074714Y-122781714D01*
X121360428Y-122710285D01*
X121574714Y-122710285D01*
X121860428Y-122781714D01*
X122003285Y-122853142D01*
X122146142Y-122996000D01*
X122217571Y-123210285D01*
X122217571Y-123567428D01*
X124204000Y-132496000D02*
X124204000Y-131781714D01*
X124632571Y-132638857D02*
X123132571Y-132138857D01*
X124632571Y-131638857D01*
X123132571Y-131138857D02*
X124346857Y-131138857D01*
X124489714Y-131067428D01*
X124561142Y-130996000D01*
X124632571Y-130853142D01*
X124632571Y-130567428D01*
X124561142Y-130424571D01*
X124489714Y-130353142D01*
X124346857Y-130281714D01*
X123132571Y-130281714D01*
X124632571Y-129567428D02*
X123132571Y-129567428D01*
X123132571Y-129210285D01*
X123204000Y-128996000D01*
X123346857Y-128853142D01*
X123489714Y-128781714D01*
X123775428Y-128710285D01*
X123989714Y-128710285D01*
X124275428Y-128781714D01*
X124418285Y-128853142D01*
X124561142Y-128996000D01*
X124632571Y-129210285D01*
X124632571Y-129567428D01*
X124632571Y-128067428D02*
X123132571Y-128067428D01*
X123132571Y-127067428D02*
X123132571Y-126781714D01*
X123204000Y-126638857D01*
X123346857Y-126496000D01*
X123632571Y-126424571D01*
X124132571Y-126424571D01*
X124418285Y-126496000D01*
X124561142Y-126638857D01*
X124632571Y-126781714D01*
X124632571Y-127067428D01*
X124561142Y-127210285D01*
X124418285Y-127353142D01*
X124132571Y-127424571D01*
X123632571Y-127424571D01*
X123346857Y-127353142D01*
X123204000Y-127210285D01*
X123132571Y-127067428D01*
X124632571Y-123924571D02*
X124632571Y-124638857D01*
X123132571Y-124638857D01*
X123061142Y-122353142D02*
X124989714Y-123638857D01*
X124632571Y-120996000D02*
X123918285Y-121496000D01*
X124632571Y-121853142D02*
X123132571Y-121853142D01*
X123132571Y-121281714D01*
X123204000Y-121138857D01*
X123275428Y-121067428D01*
X123418285Y-120996000D01*
X123632571Y-120996000D01*
X123775428Y-121067428D01*
X123846857Y-121138857D01*
X123918285Y-121281714D01*
X123918285Y-121853142D01*
X170602571Y-130500000D02*
X169102571Y-130500000D01*
X169102571Y-130142857D01*
X169174000Y-129928571D01*
X169316857Y-129785714D01*
X169459714Y-129714285D01*
X169745428Y-129642857D01*
X169959714Y-129642857D01*
X170245428Y-129714285D01*
X170388285Y-129785714D01*
X170531142Y-129928571D01*
X170602571Y-130142857D01*
X170602571Y-130500000D01*
X169102571Y-128714285D02*
X169102571Y-128571428D01*
X169174000Y-128428571D01*
X169245428Y-128357142D01*
X169388285Y-128285714D01*
X169674000Y-128214285D01*
X170031142Y-128214285D01*
X170316857Y-128285714D01*
X170459714Y-128357142D01*
X170531142Y-128428571D01*
X170602571Y-128571428D01*
X170602571Y-128714285D01*
X170531142Y-128857142D01*
X170459714Y-128928571D01*
X170316857Y-129000000D01*
X170031142Y-129071428D01*
X169674000Y-129071428D01*
X169388285Y-129000000D01*
X169245428Y-128928571D01*
X169174000Y-128857142D01*
X169102571Y-128714285D01*
X170031142Y-127571428D02*
X170031142Y-126428571D01*
X170602571Y-125714285D02*
X169102571Y-125714285D01*
X169102571Y-125357142D01*
X169174000Y-125142857D01*
X169316857Y-125000000D01*
X169459714Y-124928571D01*
X169745428Y-124857142D01*
X169959714Y-124857142D01*
X170245428Y-124928571D01*
X170388285Y-125000000D01*
X170531142Y-125142857D01*
X170602571Y-125357142D01*
X170602571Y-125714285D01*
X169102571Y-124357142D02*
X169102571Y-123357142D01*
X170602571Y-124000000D01*
X173017571Y-131785714D02*
X171517571Y-131785714D01*
X171517571Y-131214285D01*
X171589000Y-131071428D01*
X171660428Y-131000000D01*
X171803285Y-130928571D01*
X172017571Y-130928571D01*
X172160428Y-131000000D01*
X172231857Y-131071428D01*
X172303285Y-131214285D01*
X172303285Y-131785714D01*
X172589000Y-130357142D02*
X172589000Y-129642857D01*
X173017571Y-130500000D02*
X171517571Y-130000000D01*
X173017571Y-129500000D01*
X171517571Y-128714285D02*
X171517571Y-128571428D01*
X171589000Y-128428571D01*
X171660428Y-128357142D01*
X171803285Y-128285714D01*
X172089000Y-128214285D01*
X172446142Y-128214285D01*
X172731857Y-128285714D01*
X172874714Y-128357142D01*
X172946142Y-128428571D01*
X173017571Y-128571428D01*
X173017571Y-128714285D01*
X172946142Y-128857142D01*
X172874714Y-128928571D01*
X172731857Y-129000000D01*
X172446142Y-129071428D01*
X172089000Y-129071428D01*
X171803285Y-129000000D01*
X171660428Y-128928571D01*
X171589000Y-128857142D01*
X171517571Y-128714285D01*
X172446142Y-127571428D02*
X172446142Y-126428571D01*
X173017571Y-125714285D02*
X171517571Y-125714285D01*
X171517571Y-125142857D01*
X171589000Y-125000000D01*
X171660428Y-124928571D01*
X171803285Y-124857142D01*
X172017571Y-124857142D01*
X172160428Y-124928571D01*
X172231857Y-125000000D01*
X172303285Y-125142857D01*
X172303285Y-125714285D01*
X172589000Y-124285714D02*
X172589000Y-123571428D01*
X173017571Y-124428571D02*
X171517571Y-123928571D01*
X173017571Y-123428571D01*
X171517571Y-123071428D02*
X171517571Y-122071428D01*
X173017571Y-122714285D01*
X174646857Y-130892857D02*
X174646857Y-130392857D01*
X175432571Y-130178571D02*
X175432571Y-130892857D01*
X173932571Y-130892857D01*
X173932571Y-130178571D01*
X173932571Y-129678571D02*
X175432571Y-128678571D01*
X173932571Y-128678571D02*
X175432571Y-129678571D01*
X175432571Y-128107142D02*
X173932571Y-128107142D01*
X173932571Y-127535714D01*
X174004000Y-127392857D01*
X174075428Y-127321428D01*
X174218285Y-127250000D01*
X174432571Y-127250000D01*
X174575428Y-127321428D01*
X174646857Y-127392857D01*
X174718285Y-127535714D01*
X174718285Y-128107142D01*
X175289714Y-125750000D02*
X175361142Y-125821428D01*
X175432571Y-126035714D01*
X175432571Y-126178571D01*
X175361142Y-126392857D01*
X175218285Y-126535714D01*
X175075428Y-126607142D01*
X174789714Y-126678571D01*
X174575428Y-126678571D01*
X174289714Y-126607142D01*
X174146857Y-126535714D01*
X174004000Y-126392857D01*
X173932571Y-126178571D01*
X173932571Y-126035714D01*
X174004000Y-125821428D01*
X174075428Y-125750000D01*
X175432571Y-124392857D02*
X175432571Y-125107142D01*
X173932571Y-125107142D01*
X175432571Y-123892857D02*
X173932571Y-123892857D01*
X175432571Y-123035714D02*
X174575428Y-123678571D01*
X173932571Y-123035714D02*
X174789714Y-123892857D01*
X149369857Y-130904714D02*
X149441285Y-130690428D01*
X149512714Y-130619000D01*
X149655571Y-130547571D01*
X149869857Y-130547571D01*
X150012714Y-130619000D01*
X150084142Y-130690428D01*
X150155571Y-130833285D01*
X150155571Y-131404714D01*
X148655571Y-131404714D01*
X148655571Y-130904714D01*
X148727000Y-130761857D01*
X148798428Y-130690428D01*
X148941285Y-130619000D01*
X149084142Y-130619000D01*
X149227000Y-130690428D01*
X149298428Y-130761857D01*
X149369857Y-130904714D01*
X149369857Y-131404714D01*
X149727000Y-129976142D02*
X149727000Y-129261857D01*
X150155571Y-130119000D02*
X148655571Y-129619000D01*
X150155571Y-129119000D01*
X148655571Y-128333285D02*
X148655571Y-128190428D01*
X148727000Y-128047571D01*
X148798428Y-127976142D01*
X148941285Y-127904714D01*
X149227000Y-127833285D01*
X149584142Y-127833285D01*
X149869857Y-127904714D01*
X150012714Y-127976142D01*
X150084142Y-128047571D01*
X150155571Y-128190428D01*
X150155571Y-128333285D01*
X150084142Y-128476142D01*
X150012714Y-128547571D01*
X149869857Y-128619000D01*
X149584142Y-128690428D01*
X149227000Y-128690428D01*
X148941285Y-128619000D01*
X148798428Y-128547571D01*
X148727000Y-128476142D01*
X148655571Y-128333285D01*
X149584142Y-127190428D02*
X149584142Y-126047571D01*
X149369857Y-124833285D02*
X149441285Y-124619000D01*
X149512714Y-124547571D01*
X149655571Y-124476142D01*
X149869857Y-124476142D01*
X150012714Y-124547571D01*
X150084142Y-124619000D01*
X150155571Y-124761857D01*
X150155571Y-125333285D01*
X148655571Y-125333285D01*
X148655571Y-124833285D01*
X148727000Y-124690428D01*
X148798428Y-124619000D01*
X148941285Y-124547571D01*
X149084142Y-124547571D01*
X149227000Y-124619000D01*
X149298428Y-124690428D01*
X149369857Y-124833285D01*
X149369857Y-125333285D01*
X149727000Y-123904714D02*
X149727000Y-123190428D01*
X150155571Y-124047571D02*
X148655571Y-123547571D01*
X150155571Y-123047571D01*
X148655571Y-122690428D02*
X148655571Y-121690428D01*
X150155571Y-122333285D01*
X152427714Y-136869000D02*
X152499142Y-136940428D01*
X152570571Y-137154714D01*
X152570571Y-137297571D01*
X152499142Y-137511857D01*
X152356285Y-137654714D01*
X152213428Y-137726142D01*
X151927714Y-137797571D01*
X151713428Y-137797571D01*
X151427714Y-137726142D01*
X151284857Y-137654714D01*
X151142000Y-137511857D01*
X151070571Y-137297571D01*
X151070571Y-137154714D01*
X151142000Y-136940428D01*
X151213428Y-136869000D01*
X151784857Y-136226142D02*
X151784857Y-135726142D01*
X152570571Y-135511857D02*
X152570571Y-136226142D01*
X151070571Y-136226142D01*
X151070571Y-135511857D01*
X150999142Y-133797571D02*
X152927714Y-135083285D01*
X152570571Y-133297571D02*
X151070571Y-133297571D01*
X152570571Y-131726142D02*
X151856285Y-132226142D01*
X152570571Y-132583285D02*
X151070571Y-132583285D01*
X151070571Y-132011857D01*
X151142000Y-131869000D01*
X151213428Y-131797571D01*
X151356285Y-131726142D01*
X151570571Y-131726142D01*
X151713428Y-131797571D01*
X151784857Y-131869000D01*
X151856285Y-132011857D01*
X151856285Y-132583285D01*
X152713428Y-130083285D02*
X152642000Y-130226142D01*
X152499142Y-130369000D01*
X152284857Y-130583285D01*
X152213428Y-130726142D01*
X152213428Y-130869000D01*
X152570571Y-130797571D02*
X152499142Y-130940428D01*
X152356285Y-131083285D01*
X152070571Y-131154714D01*
X151570571Y-131154714D01*
X151284857Y-131083285D01*
X151142000Y-130940428D01*
X151070571Y-130797571D01*
X151070571Y-130511857D01*
X151142000Y-130369000D01*
X151284857Y-130226142D01*
X151570571Y-130154714D01*
X152070571Y-130154714D01*
X152356285Y-130226142D01*
X152499142Y-130369000D01*
X152570571Y-130511857D01*
X152570571Y-130797571D01*
X150999142Y-128440428D02*
X152927714Y-129726142D01*
X152570571Y-127083285D02*
X151856285Y-127583285D01*
X152570571Y-127940428D02*
X151070571Y-127940428D01*
X151070571Y-127369000D01*
X151142000Y-127226142D01*
X151213428Y-127154714D01*
X151356285Y-127083285D01*
X151570571Y-127083285D01*
X151713428Y-127154714D01*
X151784857Y-127226142D01*
X151856285Y-127369000D01*
X151856285Y-127940428D01*
X150999142Y-125369000D02*
X152927714Y-126654714D01*
X151070571Y-125011857D02*
X152570571Y-124654714D01*
X151499142Y-124369000D01*
X152570571Y-124083285D01*
X151070571Y-123726142D01*
X150999142Y-122083285D02*
X152927714Y-123369000D01*
X152570571Y-120726142D02*
X151856285Y-121226142D01*
X152570571Y-121583285D02*
X151070571Y-121583285D01*
X151070571Y-121011857D01*
X151142000Y-120869000D01*
X151213428Y-120797571D01*
X151356285Y-120726142D01*
X151570571Y-120726142D01*
X151713428Y-120797571D01*
X151784857Y-120869000D01*
X151856285Y-121011857D01*
X151856285Y-121583285D01*
X151784857Y-120083285D02*
X151784857Y-119583285D01*
X152570571Y-119369000D02*
X152570571Y-120083285D01*
X151070571Y-120083285D01*
X151070571Y-119369000D01*
X152499142Y-118797571D02*
X152570571Y-118583285D01*
X152570571Y-118226142D01*
X152499142Y-118083285D01*
X152427714Y-118011857D01*
X152284857Y-117940428D01*
X152142000Y-117940428D01*
X151999142Y-118011857D01*
X151927714Y-118083285D01*
X151856285Y-118226142D01*
X151784857Y-118511857D01*
X151713428Y-118654714D01*
X151642000Y-118726142D01*
X151499142Y-118797571D01*
X151356285Y-118797571D01*
X151213428Y-118726142D01*
X151142000Y-118654714D01*
X151070571Y-118511857D01*
X151070571Y-118154714D01*
X151142000Y-117940428D01*
X151784857Y-117297571D02*
X151784857Y-116797571D01*
X152570571Y-116583285D02*
X152570571Y-117297571D01*
X151070571Y-117297571D01*
X151070571Y-116583285D01*
X151070571Y-116154714D02*
X151070571Y-115297571D01*
X152570571Y-115726142D02*
X151070571Y-115726142D01*
X154842714Y-134797571D02*
X154914142Y-134869000D01*
X154985571Y-135083285D01*
X154985571Y-135226142D01*
X154914142Y-135440428D01*
X154771285Y-135583285D01*
X154628428Y-135654714D01*
X154342714Y-135726142D01*
X154128428Y-135726142D01*
X153842714Y-135654714D01*
X153699857Y-135583285D01*
X153557000Y-135440428D01*
X153485571Y-135226142D01*
X153485571Y-135083285D01*
X153557000Y-134869000D01*
X153628428Y-134797571D01*
X154985571Y-134154714D02*
X153485571Y-134154714D01*
X154842714Y-132583285D02*
X154914142Y-132654714D01*
X154985571Y-132869000D01*
X154985571Y-133011857D01*
X154914142Y-133226142D01*
X154771285Y-133369000D01*
X154628428Y-133440428D01*
X154342714Y-133511857D01*
X154128428Y-133511857D01*
X153842714Y-133440428D01*
X153699857Y-133369000D01*
X153557000Y-133226142D01*
X153485571Y-133011857D01*
X153485571Y-132869000D01*
X153557000Y-132654714D01*
X153628428Y-132583285D01*
X154985571Y-130797571D02*
X153485571Y-130797571D01*
X154985571Y-130083285D02*
X153485571Y-130083285D01*
X154985571Y-129226142D01*
X153485571Y-129226142D01*
X153414142Y-127440428D02*
X155342714Y-128726142D01*
X153485571Y-126654714D02*
X153485571Y-126369000D01*
X153557000Y-126226142D01*
X153699857Y-126083285D01*
X153985571Y-126011857D01*
X154485571Y-126011857D01*
X154771285Y-126083285D01*
X154914142Y-126226142D01*
X154985571Y-126369000D01*
X154985571Y-126654714D01*
X154914142Y-126797571D01*
X154771285Y-126940428D01*
X154485571Y-127011857D01*
X153985571Y-127011857D01*
X153699857Y-126940428D01*
X153557000Y-126797571D01*
X153485571Y-126654714D01*
X153485571Y-125369000D02*
X154699857Y-125369000D01*
X154842714Y-125297571D01*
X154914142Y-125226142D01*
X154985571Y-125083285D01*
X154985571Y-124797571D01*
X154914142Y-124654714D01*
X154842714Y-124583285D01*
X154699857Y-124511857D01*
X153485571Y-124511857D01*
X153485571Y-124011857D02*
X153485571Y-123154714D01*
X154985571Y-123583285D02*
X153485571Y-123583285D01*
X153414142Y-121583285D02*
X155342714Y-122869000D01*
X154842714Y-120226142D02*
X154914142Y-120297571D01*
X154985571Y-120511857D01*
X154985571Y-120654714D01*
X154914142Y-120869000D01*
X154771285Y-121011857D01*
X154628428Y-121083285D01*
X154342714Y-121154714D01*
X154128428Y-121154714D01*
X153842714Y-121083285D01*
X153699857Y-121011857D01*
X153557000Y-120869000D01*
X153485571Y-120654714D01*
X153485571Y-120511857D01*
X153557000Y-120297571D01*
X153628428Y-120226142D01*
X154985571Y-118869000D02*
X154985571Y-119583285D01*
X153485571Y-119583285D01*
X154985571Y-118369000D02*
X153485571Y-118369000D01*
X154985571Y-117511857D02*
X154128428Y-118154714D01*
X153485571Y-117511857D02*
X154342714Y-118369000D01*
X136964500Y-129039428D02*
X136964500Y-128325142D01*
X137393071Y-129182285D02*
X135893071Y-128682285D01*
X137393071Y-128182285D01*
X135893071Y-127396571D02*
X135893071Y-127253714D01*
X135964500Y-127110857D01*
X136035928Y-127039428D01*
X136178785Y-126968000D01*
X136464500Y-126896571D01*
X136821642Y-126896571D01*
X137107357Y-126968000D01*
X137250214Y-127039428D01*
X137321642Y-127110857D01*
X137393071Y-127253714D01*
X137393071Y-127396571D01*
X137321642Y-127539428D01*
X137250214Y-127610857D01*
X137107357Y-127682285D01*
X136821642Y-127753714D01*
X136464500Y-127753714D01*
X136178785Y-127682285D01*
X136035928Y-127610857D01*
X135964500Y-127539428D01*
X135893071Y-127396571D01*
X136821642Y-126253714D02*
X136821642Y-125110857D01*
X136964500Y-124468000D02*
X136964500Y-123753714D01*
X137393071Y-124610857D02*
X135893071Y-124110857D01*
X137393071Y-123610857D01*
X137393071Y-122325142D02*
X137393071Y-123182285D01*
X137393071Y-122753714D02*
X135893071Y-122753714D01*
X136107357Y-122896571D01*
X136250214Y-123039428D01*
X136321642Y-123182285D01*
X135893071Y-120968000D02*
X135893071Y-121682285D01*
X136607357Y-121753714D01*
X136535928Y-121682285D01*
X136464500Y-121539428D01*
X136464500Y-121182285D01*
X136535928Y-121039428D01*
X136607357Y-120968000D01*
X136750214Y-120896571D01*
X137107357Y-120896571D01*
X137250214Y-120968000D01*
X137321642Y-121039428D01*
X137393071Y-121182285D01*
X137393071Y-121539428D01*
X137321642Y-121682285D01*
X137250214Y-121753714D01*
X139665214Y-125860857D02*
X139736642Y-125932285D01*
X139808071Y-126146571D01*
X139808071Y-126289428D01*
X139736642Y-126503714D01*
X139593785Y-126646571D01*
X139450928Y-126718000D01*
X139165214Y-126789428D01*
X138950928Y-126789428D01*
X138665214Y-126718000D01*
X138522357Y-126646571D01*
X138379500Y-126503714D01*
X138308071Y-126289428D01*
X138308071Y-126146571D01*
X138379500Y-125932285D01*
X138450928Y-125860857D01*
X139808071Y-124503714D02*
X139808071Y-125218000D01*
X138308071Y-125218000D01*
X139808071Y-124003714D02*
X138308071Y-124003714D01*
X139808071Y-123146571D02*
X138950928Y-123789428D01*
X138308071Y-123146571D02*
X139165214Y-124003714D01*
X104119071Y-131908142D02*
X102619071Y-131908142D01*
X104119071Y-131265285D02*
X103333357Y-131265285D01*
X103190500Y-131336714D01*
X103119071Y-131479571D01*
X103119071Y-131693857D01*
X103190500Y-131836714D01*
X103261928Y-131908142D01*
X103119071Y-130551000D02*
X104619071Y-130551000D01*
X103190500Y-130551000D02*
X103119071Y-130408142D01*
X103119071Y-130122428D01*
X103190500Y-129979571D01*
X103261928Y-129908142D01*
X103404785Y-129836714D01*
X103833357Y-129836714D01*
X103976214Y-129908142D01*
X104047642Y-129979571D01*
X104119071Y-130122428D01*
X104119071Y-130408142D01*
X104047642Y-130551000D01*
X104119071Y-127836714D02*
X104047642Y-127979571D01*
X103904785Y-128051000D01*
X102619071Y-128051000D01*
X104119071Y-127051000D02*
X104047642Y-127193857D01*
X103976214Y-127265285D01*
X103833357Y-127336714D01*
X103404785Y-127336714D01*
X103261928Y-127265285D01*
X103190500Y-127193857D01*
X103119071Y-127051000D01*
X103119071Y-126836714D01*
X103190500Y-126693857D01*
X103261928Y-126622428D01*
X103404785Y-126551000D01*
X103833357Y-126551000D01*
X103976214Y-126622428D01*
X104047642Y-126693857D01*
X104119071Y-126836714D01*
X104119071Y-127051000D01*
X103119071Y-125265285D02*
X104333357Y-125265285D01*
X104476214Y-125336714D01*
X104547642Y-125408142D01*
X104619071Y-125551000D01*
X104619071Y-125765285D01*
X104547642Y-125908142D01*
X104047642Y-125265285D02*
X104119071Y-125408142D01*
X104119071Y-125693857D01*
X104047642Y-125836714D01*
X103976214Y-125908142D01*
X103833357Y-125979571D01*
X103404785Y-125979571D01*
X103261928Y-125908142D01*
X103190500Y-125836714D01*
X103119071Y-125693857D01*
X103119071Y-125408142D01*
X103190500Y-125265285D01*
X104119071Y-124551000D02*
X103119071Y-124551000D01*
X102619071Y-124551000D02*
X102690500Y-124622428D01*
X102761928Y-124551000D01*
X102690500Y-124479571D01*
X102619071Y-124551000D01*
X102761928Y-124551000D01*
X104047642Y-123193857D02*
X104119071Y-123336714D01*
X104119071Y-123622428D01*
X104047642Y-123765285D01*
X103976214Y-123836714D01*
X103833357Y-123908142D01*
X103404785Y-123908142D01*
X103261928Y-123836714D01*
X103190500Y-123765285D01*
X103119071Y-123622428D01*
X103119071Y-123336714D01*
X103190500Y-123193857D01*
X104119071Y-120765285D02*
X103333357Y-120765285D01*
X103190500Y-120836714D01*
X103119071Y-120979571D01*
X103119071Y-121265285D01*
X103190500Y-121408142D01*
X104047642Y-120765285D02*
X104119071Y-120908142D01*
X104119071Y-121265285D01*
X104047642Y-121408142D01*
X103904785Y-121479571D01*
X103761928Y-121479571D01*
X103619071Y-121408142D01*
X103547642Y-121265285D01*
X103547642Y-120908142D01*
X103476214Y-120765285D01*
X103119071Y-120051000D02*
X104119071Y-120051000D01*
X103261928Y-120051000D02*
X103190500Y-119979571D01*
X103119071Y-119836714D01*
X103119071Y-119622428D01*
X103190500Y-119479571D01*
X103333357Y-119408142D01*
X104119071Y-119408142D01*
X104119071Y-118051000D02*
X103333357Y-118051000D01*
X103190500Y-118122428D01*
X103119071Y-118265285D01*
X103119071Y-118551000D01*
X103190500Y-118693857D01*
X104047642Y-118051000D02*
X104119071Y-118193857D01*
X104119071Y-118551000D01*
X104047642Y-118693857D01*
X103904785Y-118765285D01*
X103761928Y-118765285D01*
X103619071Y-118693857D01*
X103547642Y-118551000D01*
X103547642Y-118193857D01*
X103476214Y-118051000D01*
X104119071Y-117122428D02*
X104047642Y-117265285D01*
X103904785Y-117336714D01*
X102619071Y-117336714D01*
X103119071Y-116693857D02*
X104119071Y-116336714D01*
X103119071Y-115979571D02*
X104119071Y-116336714D01*
X104476214Y-116479571D01*
X104547642Y-116551000D01*
X104619071Y-116693857D01*
X103119071Y-115551000D02*
X103119071Y-114765285D01*
X104119071Y-115551000D01*
X104119071Y-114765285D01*
X104047642Y-113622428D02*
X104119071Y-113765285D01*
X104119071Y-114051000D01*
X104047642Y-114193857D01*
X103904785Y-114265285D01*
X103333357Y-114265285D01*
X103190500Y-114193857D01*
X103119071Y-114051000D01*
X103119071Y-113765285D01*
X103190500Y-113622428D01*
X103333357Y-113551000D01*
X103476214Y-113551000D01*
X103619071Y-114265285D01*
X104119071Y-112908142D02*
X103119071Y-112908142D01*
X103404785Y-112908142D02*
X103261928Y-112836714D01*
X103190500Y-112765285D01*
X103119071Y-112622428D01*
X103119071Y-112479571D01*
X106462642Y-132265285D02*
X106534071Y-132122428D01*
X106534071Y-131836714D01*
X106462642Y-131693857D01*
X106319785Y-131622428D01*
X106248357Y-131622428D01*
X106105500Y-131693857D01*
X106034071Y-131836714D01*
X106034071Y-132051000D01*
X105962642Y-132193857D01*
X105819785Y-132265285D01*
X105748357Y-132265285D01*
X105605500Y-132193857D01*
X105534071Y-132051000D01*
X105534071Y-131836714D01*
X105605500Y-131693857D01*
X105534071Y-130979571D02*
X106534071Y-130979571D01*
X105676928Y-130979571D02*
X105605500Y-130908142D01*
X105534071Y-130765285D01*
X105534071Y-130551000D01*
X105605500Y-130408142D01*
X105748357Y-130336714D01*
X106534071Y-130336714D01*
X106462642Y-129051000D02*
X106534071Y-129193857D01*
X106534071Y-129479571D01*
X106462642Y-129622428D01*
X106319785Y-129693857D01*
X105748357Y-129693857D01*
X105605500Y-129622428D01*
X105534071Y-129479571D01*
X105534071Y-129193857D01*
X105605500Y-129051000D01*
X105748357Y-128979571D01*
X105891214Y-128979571D01*
X106034071Y-129693857D01*
X106462642Y-128408142D02*
X106534071Y-128265285D01*
X106534071Y-127979571D01*
X106462642Y-127836714D01*
X106319785Y-127765285D01*
X106248357Y-127765285D01*
X106105500Y-127836714D01*
X106034071Y-127979571D01*
X106034071Y-128193857D01*
X105962642Y-128336714D01*
X105819785Y-128408142D01*
X105748357Y-128408142D01*
X105605500Y-128336714D01*
X105534071Y-128193857D01*
X105534071Y-127979571D01*
X105605500Y-127836714D01*
X106462642Y-126051000D02*
X106534071Y-125908142D01*
X106534071Y-125622428D01*
X106462642Y-125479571D01*
X106319785Y-125408142D01*
X106248357Y-125408142D01*
X106105500Y-125479571D01*
X106034071Y-125622428D01*
X106034071Y-125836714D01*
X105962642Y-125979571D01*
X105819785Y-126051000D01*
X105748357Y-126051000D01*
X105605500Y-125979571D01*
X105534071Y-125836714D01*
X105534071Y-125622428D01*
X105605500Y-125479571D01*
X106534071Y-124765285D02*
X105534071Y-124765285D01*
X105034071Y-124765285D02*
X105105500Y-124836714D01*
X105176928Y-124765285D01*
X105105500Y-124693857D01*
X105034071Y-124765285D01*
X105176928Y-124765285D01*
X105534071Y-123408142D02*
X106748357Y-123408142D01*
X106891214Y-123479571D01*
X106962642Y-123551000D01*
X107034071Y-123693857D01*
X107034071Y-123908142D01*
X106962642Y-124051000D01*
X106462642Y-123408142D02*
X106534071Y-123551000D01*
X106534071Y-123836714D01*
X106462642Y-123979571D01*
X106391214Y-124051000D01*
X106248357Y-124122428D01*
X105819785Y-124122428D01*
X105676928Y-124051000D01*
X105605500Y-123979571D01*
X105534071Y-123836714D01*
X105534071Y-123551000D01*
X105605500Y-123408142D01*
X105534071Y-122693857D02*
X106534071Y-122693857D01*
X105676928Y-122693857D02*
X105605500Y-122622428D01*
X105534071Y-122479571D01*
X105534071Y-122265285D01*
X105605500Y-122122428D01*
X105748357Y-122051000D01*
X106534071Y-122051000D01*
X106534071Y-120693857D02*
X105748357Y-120693857D01*
X105605500Y-120765285D01*
X105534071Y-120908142D01*
X105534071Y-121193857D01*
X105605500Y-121336714D01*
X106462642Y-120693857D02*
X106534071Y-120836714D01*
X106534071Y-121193857D01*
X106462642Y-121336714D01*
X106319785Y-121408142D01*
X106176928Y-121408142D01*
X106034071Y-121336714D01*
X105962642Y-121193857D01*
X105962642Y-120836714D01*
X105891214Y-120693857D01*
X106534071Y-119765285D02*
X106462642Y-119908142D01*
X106319785Y-119979571D01*
X105034071Y-119979571D01*
X106534071Y-118051000D02*
X105034071Y-118051000D01*
X105605500Y-118051000D02*
X105534071Y-117908142D01*
X105534071Y-117622428D01*
X105605500Y-117479571D01*
X105676928Y-117408142D01*
X105819785Y-117336714D01*
X106248357Y-117336714D01*
X106391214Y-117408142D01*
X106462642Y-117479571D01*
X106534071Y-117622428D01*
X106534071Y-117908142D01*
X106462642Y-118051000D01*
X106534071Y-116479571D02*
X106462642Y-116622428D01*
X106391214Y-116693857D01*
X106248357Y-116765285D01*
X105819785Y-116765285D01*
X105676928Y-116693857D01*
X105605500Y-116622428D01*
X105534071Y-116479571D01*
X105534071Y-116265285D01*
X105605500Y-116122428D01*
X105676928Y-116051000D01*
X105819785Y-115979571D01*
X106248357Y-115979571D01*
X106391214Y-116051000D01*
X106462642Y-116122428D01*
X106534071Y-116265285D01*
X106534071Y-116479571D01*
X106534071Y-114693857D02*
X105748357Y-114693857D01*
X105605500Y-114765285D01*
X105534071Y-114908142D01*
X105534071Y-115193857D01*
X105605500Y-115336714D01*
X106462642Y-114693857D02*
X106534071Y-114836714D01*
X106534071Y-115193857D01*
X106462642Y-115336714D01*
X106319785Y-115408142D01*
X106176928Y-115408142D01*
X106034071Y-115336714D01*
X105962642Y-115193857D01*
X105962642Y-114836714D01*
X105891214Y-114693857D01*
X106534071Y-113979571D02*
X105534071Y-113979571D01*
X105819785Y-113979571D02*
X105676928Y-113908142D01*
X105605500Y-113836714D01*
X105534071Y-113693857D01*
X105534071Y-113551000D01*
X106534071Y-112408142D02*
X105034071Y-112408142D01*
X106462642Y-112408142D02*
X106534071Y-112551000D01*
X106534071Y-112836714D01*
X106462642Y-112979571D01*
X106391214Y-113051000D01*
X106248357Y-113122428D01*
X105819785Y-113122428D01*
X105676928Y-113051000D01*
X105605500Y-112979571D01*
X105534071Y-112836714D01*
X105534071Y-112551000D01*
X105605500Y-112408142D01*
X130050714Y-68853857D02*
X128717380Y-68853857D01*
X128717380Y-69639571D02*
X128717380Y-68139571D01*
X130622142Y-68139571D01*
X134431666Y-69639571D02*
X133098333Y-68925285D01*
X132145952Y-69639571D02*
X132145952Y-68139571D01*
X133669761Y-68139571D01*
X134050714Y-68211000D01*
X134241190Y-68282428D01*
X134431666Y-68425285D01*
X134431666Y-68639571D01*
X134241190Y-68782428D01*
X134050714Y-68853857D01*
X133669761Y-68925285D01*
X132145952Y-68925285D01*
X136907857Y-68139571D02*
X137669761Y-68139571D01*
X138050714Y-68211000D01*
X138431666Y-68353857D01*
X138622142Y-68639571D01*
X138622142Y-69139571D01*
X138431666Y-69425285D01*
X138050714Y-69568142D01*
X137669761Y-69639571D01*
X136907857Y-69639571D01*
X136526904Y-69568142D01*
X136145952Y-69425285D01*
X135955476Y-69139571D01*
X135955476Y-68639571D01*
X136145952Y-68353857D01*
X136526904Y-68211000D01*
X136907857Y-68139571D01*
X140336428Y-69639571D02*
X140336428Y-68139571D01*
X142622142Y-69639571D01*
X142622142Y-68139571D01*
X143955476Y-68139571D02*
X146241190Y-68139571D01*
X145098333Y-69639571D02*
X145098333Y-68139571D01*
X151384047Y-68139571D02*
X152145952Y-68139571D01*
X152526904Y-68211000D01*
X152907857Y-68353857D01*
X153098333Y-68639571D01*
X153098333Y-69139571D01*
X152907857Y-69425285D01*
X152526904Y-69568142D01*
X152145952Y-69639571D01*
X151384047Y-69639571D01*
X151003095Y-69568142D01*
X150622142Y-69425285D01*
X150431666Y-69139571D01*
X150431666Y-68639571D01*
X150622142Y-68353857D01*
X151003095Y-68211000D01*
X151384047Y-68139571D01*
X156145952Y-68853857D02*
X154812619Y-68853857D01*
X154812619Y-69639571D02*
X154812619Y-68139571D01*
X156717380Y-68139571D01*
X161098333Y-69568142D02*
X161669761Y-69639571D01*
X162622142Y-69639571D01*
X163003095Y-69568142D01*
X163193571Y-69496714D01*
X163384047Y-69353857D01*
X163384047Y-69211000D01*
X163193571Y-69068142D01*
X163003095Y-68996714D01*
X162622142Y-68925285D01*
X161860238Y-68853857D01*
X161479285Y-68782428D01*
X161288809Y-68711000D01*
X161098333Y-68568142D01*
X161098333Y-68425285D01*
X161288809Y-68282428D01*
X161479285Y-68211000D01*
X161860238Y-68139571D01*
X162812619Y-68139571D01*
X163384047Y-68211000D01*
X165098333Y-69639571D02*
X165098333Y-68139571D01*
X167384047Y-69639571D01*
X167384047Y-68139571D01*
X169288809Y-68853857D02*
X170622142Y-68853857D01*
X171193571Y-69639571D02*
X169288809Y-69639571D01*
X169288809Y-68139571D01*
X171193571Y-68139571D01*
X172717380Y-69568142D02*
X173288809Y-69639571D01*
X174241190Y-69639571D01*
X174622142Y-69568142D01*
X174812619Y-69496714D01*
X175003095Y-69353857D01*
X175003095Y-69211000D01*
X174812619Y-69068142D01*
X174622142Y-68996714D01*
X174241190Y-68925285D01*
X173479285Y-68853857D01*
X173098333Y-68782428D01*
X172907857Y-68711000D01*
X172717380Y-68568142D01*
X172717380Y-68425285D01*
X172907857Y-68282428D01*
X173098333Y-68211000D01*
X173479285Y-68139571D01*
X174431666Y-68139571D01*
X175003095Y-68211000D01*
%TO.C,CON1*%
G36*
X196680000Y-152940000D02*
G01*
X184180000Y-152940000D01*
X184180000Y-144740000D01*
X196680000Y-144740000D01*
X196680000Y-152940000D01*
G37*
D11*
X196680000Y-152940000D02*
X184180000Y-152940000D01*
X184180000Y-144740000D01*
X196680000Y-144740000D01*
X196680000Y-152940000D01*
G36*
X181680000Y-152940000D02*
G01*
X121680000Y-152940000D01*
X121680000Y-144740000D01*
X181680000Y-144740000D01*
X181680000Y-152940000D01*
G37*
X181680000Y-152940000D02*
X121680000Y-152940000D01*
X121680000Y-144740000D01*
X181680000Y-144740000D01*
X181680000Y-152940000D01*
G36*
X119180000Y-152940000D02*
G01*
X106680000Y-152940000D01*
X106680000Y-144740000D01*
X119180000Y-144740000D01*
X119180000Y-152940000D01*
G37*
X119180000Y-152940000D02*
X106680000Y-152940000D01*
X106680000Y-144740000D01*
X119180000Y-144740000D01*
X119180000Y-152940000D01*
%TO.C,G\u002A\u002A\u002A*%
G36*
X197886322Y-117201264D02*
G01*
X197892333Y-117204957D01*
X197899922Y-117215757D01*
X197906781Y-117240353D01*
X197912968Y-117282158D01*
X197918537Y-117344583D01*
X197923546Y-117431038D01*
X197928050Y-117544936D01*
X197932106Y-117689688D01*
X197935769Y-117868705D01*
X197939096Y-118085399D01*
X197942144Y-118343182D01*
X197944967Y-118645464D01*
X197947623Y-118995657D01*
X197950167Y-119397174D01*
X197952656Y-119853424D01*
X197955146Y-120367820D01*
X197957693Y-120943773D01*
X197959000Y-121254449D01*
X197975666Y-125272339D01*
X197870552Y-125272336D01*
X197812503Y-125269765D01*
X197696774Y-125262476D01*
X197532138Y-125251099D01*
X197327367Y-125236264D01*
X197091233Y-125218602D01*
X196832508Y-125198744D01*
X196670552Y-125186074D01*
X196193494Y-125151534D01*
X195774653Y-125128306D01*
X195406485Y-125116749D01*
X195081448Y-125117224D01*
X194791996Y-125130092D01*
X194530586Y-125155712D01*
X194289674Y-125194445D01*
X194061716Y-125246651D01*
X193839169Y-125312690D01*
X193809000Y-125322728D01*
X193708307Y-125360123D01*
X193633411Y-125394259D01*
X193610666Y-125408928D01*
X193637178Y-125414590D01*
X193726555Y-125419790D01*
X193874994Y-125424478D01*
X194078695Y-125428603D01*
X194333857Y-125432113D01*
X194636678Y-125434958D01*
X194983358Y-125437087D01*
X195370095Y-125438449D01*
X195793087Y-125438992D01*
X195852333Y-125439000D01*
X198125666Y-125439000D01*
X198125666Y-121541380D01*
X198125732Y-120945177D01*
X198125960Y-120412107D01*
X198126397Y-119938637D01*
X198127090Y-119521231D01*
X198128086Y-119156358D01*
X198129431Y-118840483D01*
X198131173Y-118570072D01*
X198133359Y-118341592D01*
X198136035Y-118151509D01*
X198139249Y-117996290D01*
X198143046Y-117872401D01*
X198147474Y-117776308D01*
X198152580Y-117704477D01*
X198158411Y-117653375D01*
X198165013Y-117619469D01*
X198172433Y-117599224D01*
X198178047Y-117591380D01*
X198266402Y-117544693D01*
X198365311Y-117552085D01*
X198437167Y-117599958D01*
X198445423Y-117612884D01*
X198452818Y-117634764D01*
X198459399Y-117669103D01*
X198465213Y-117719401D01*
X198470306Y-117789163D01*
X198474726Y-117881890D01*
X198478519Y-118001085D01*
X198481733Y-118150252D01*
X198484414Y-118332892D01*
X198486610Y-118552509D01*
X198488366Y-118812605D01*
X198489731Y-119116683D01*
X198490751Y-119468246D01*
X198491474Y-119870796D01*
X198491945Y-120327837D01*
X198492212Y-120842870D01*
X198492322Y-121419399D01*
X198492333Y-121716624D01*
X198492333Y-125772333D01*
X193436824Y-125772333D01*
X193332622Y-125901999D01*
X193170115Y-126052518D01*
X192968394Y-126154344D01*
X192738628Y-126202442D01*
X192659000Y-126205666D01*
X192499004Y-126196515D01*
X192366874Y-126163633D01*
X192264168Y-126118665D01*
X192144137Y-126044494D01*
X192031993Y-125951999D01*
X191985377Y-125901999D01*
X191881175Y-125772333D01*
X186825666Y-125772333D01*
X186825666Y-121710832D01*
X186825698Y-121105480D01*
X186825827Y-120563267D01*
X186826106Y-120080667D01*
X186826587Y-119654152D01*
X186827323Y-119280197D01*
X186828365Y-118955273D01*
X186829766Y-118675855D01*
X186831578Y-118438414D01*
X186833853Y-118239425D01*
X186836644Y-118075360D01*
X186840003Y-117942692D01*
X186843981Y-117837894D01*
X186848632Y-117757440D01*
X186854007Y-117697802D01*
X186860159Y-117655454D01*
X186867140Y-117626868D01*
X186875002Y-117608518D01*
X186883797Y-117596877D01*
X186886624Y-117594166D01*
X186981879Y-117544972D01*
X187081126Y-117552833D01*
X187139952Y-117591380D01*
X187147964Y-117604268D01*
X187155124Y-117628383D01*
X187161482Y-117667258D01*
X187167082Y-117724427D01*
X187171972Y-117803423D01*
X187176199Y-117907780D01*
X187179810Y-118041033D01*
X187182851Y-118206714D01*
X187185370Y-118408358D01*
X187187413Y-118649497D01*
X187189027Y-118933666D01*
X187190258Y-119264399D01*
X187191155Y-119645228D01*
X187191764Y-120079688D01*
X187192131Y-120571312D01*
X187192303Y-121123635D01*
X187192333Y-121541380D01*
X187192333Y-125439000D01*
X189465666Y-125439000D01*
X189893230Y-125438570D01*
X190285047Y-125437315D01*
X190637316Y-125435286D01*
X190946236Y-125432534D01*
X191208007Y-125429110D01*
X191418826Y-125425065D01*
X191574893Y-125420449D01*
X191672406Y-125415315D01*
X191707565Y-125409712D01*
X191707333Y-125408928D01*
X191659350Y-125381706D01*
X191571341Y-125345039D01*
X191509000Y-125322728D01*
X191287180Y-125254922D01*
X191061082Y-125200917D01*
X190823180Y-125160355D01*
X190565949Y-125132876D01*
X190281862Y-125118121D01*
X189963392Y-125115731D01*
X189603015Y-125125348D01*
X189193203Y-125146610D01*
X188726430Y-125179161D01*
X188640258Y-125185840D01*
X188372218Y-125206668D01*
X188122300Y-125225694D01*
X187899087Y-125242293D01*
X187711163Y-125255843D01*
X187567111Y-125265720D01*
X187475516Y-125271302D01*
X187448591Y-125272333D01*
X187359000Y-125272333D01*
X187359000Y-121274714D01*
X187359063Y-120670543D01*
X187359284Y-120129550D01*
X187359707Y-119648247D01*
X187360378Y-119223146D01*
X187361341Y-118850758D01*
X187362643Y-118527595D01*
X187364327Y-118250168D01*
X187366439Y-118014990D01*
X187369024Y-117818571D01*
X187372127Y-117657424D01*
X187375794Y-117528061D01*
X187380069Y-117426992D01*
X187384997Y-117350730D01*
X187390625Y-117295786D01*
X187396996Y-117258672D01*
X187404156Y-117235899D01*
X187411380Y-117224714D01*
X187494460Y-117176720D01*
X187592514Y-117190162D01*
X187627858Y-117206839D01*
X187637721Y-117213418D01*
X187646523Y-117224421D01*
X187654325Y-117243468D01*
X187661188Y-117274176D01*
X187667171Y-117320166D01*
X187672334Y-117385056D01*
X187676739Y-117472464D01*
X187680444Y-117586010D01*
X187683512Y-117729313D01*
X187686001Y-117905991D01*
X187687972Y-118119663D01*
X187689485Y-118373949D01*
X187690601Y-118672467D01*
X187691381Y-119018836D01*
X187691883Y-119416675D01*
X187692169Y-119869603D01*
X187692299Y-120381238D01*
X187692332Y-120955200D01*
X187692333Y-121077346D01*
X187692333Y-124913348D01*
X187867333Y-124893391D01*
X187945499Y-124885802D01*
X188079915Y-124874215D01*
X188260339Y-124859451D01*
X188476528Y-124842332D01*
X188718240Y-124823677D01*
X188975232Y-124804309D01*
X189025666Y-124800562D01*
X189323803Y-124779009D01*
X189566838Y-124763002D01*
X189766083Y-124752275D01*
X189932847Y-124746561D01*
X190078444Y-124745592D01*
X190214183Y-124749102D01*
X190351376Y-124756824D01*
X190475666Y-124766340D01*
X190965929Y-124827686D01*
X191420455Y-124926581D01*
X191833367Y-125061083D01*
X192198788Y-125229249D01*
X192510844Y-125429135D01*
X192534000Y-125446963D01*
X192659000Y-125544601D01*
X192784000Y-125446963D01*
X193091395Y-125244549D01*
X193452641Y-125073696D01*
X193861861Y-124936346D01*
X194313179Y-124834443D01*
X194800719Y-124769929D01*
X194842333Y-124766340D01*
X194989451Y-124755296D01*
X195125639Y-124748239D01*
X195262208Y-124745438D01*
X195410470Y-124747159D01*
X195581736Y-124753668D01*
X195787316Y-124765234D01*
X196038522Y-124782122D01*
X196292333Y-124800562D01*
X196551093Y-124819974D01*
X196796548Y-124838830D01*
X197018453Y-124856309D01*
X197206568Y-124871590D01*
X197350649Y-124883854D01*
X197440455Y-124892278D01*
X197450666Y-124893391D01*
X197625666Y-124913348D01*
X197625666Y-121077346D01*
X197625688Y-120490531D01*
X197625794Y-119966764D01*
X197626044Y-119502426D01*
X197626498Y-119093897D01*
X197627217Y-118737560D01*
X197628262Y-118429795D01*
X197629691Y-118166983D01*
X197631566Y-117945505D01*
X197633947Y-117761744D01*
X197636894Y-117612078D01*
X197640468Y-117492891D01*
X197644729Y-117400563D01*
X197649736Y-117331474D01*
X197655551Y-117282007D01*
X197662233Y-117248541D01*
X197669843Y-117227460D01*
X197678442Y-117215142D01*
X197688088Y-117207970D01*
X197690141Y-117206839D01*
X197793590Y-117174572D01*
X197886322Y-117201264D01*
G37*
G36*
X188067333Y-116886474D02*
G01*
X188459522Y-116986700D01*
X188906370Y-117075183D01*
X189396625Y-117150209D01*
X189919037Y-117210062D01*
X190462357Y-117253024D01*
X190475666Y-117253840D01*
X190721251Y-117269344D01*
X190911971Y-117283272D01*
X191059548Y-117297311D01*
X191175706Y-117313153D01*
X191272165Y-117332486D01*
X191360647Y-117357001D01*
X191452876Y-117388386D01*
X191481469Y-117398820D01*
X191841822Y-117565752D01*
X192177982Y-117789660D01*
X192442193Y-118025939D01*
X192657918Y-118247038D01*
X192884801Y-118018019D01*
X193185814Y-117752472D01*
X193507101Y-117545702D01*
X193828462Y-117401765D01*
X193925961Y-117367240D01*
X194014974Y-117340330D01*
X194107291Y-117319315D01*
X194214704Y-117302474D01*
X194349003Y-117288087D01*
X194521980Y-117274434D01*
X194745426Y-117259795D01*
X194842333Y-117253840D01*
X195386018Y-117211307D01*
X195909070Y-117151843D01*
X196400235Y-117077164D01*
X196848266Y-116988986D01*
X197241911Y-116889024D01*
X197250666Y-116886474D01*
X197325666Y-116864557D01*
X197325666Y-124640270D01*
X197250666Y-124623025D01*
X197198598Y-124616161D01*
X197089458Y-124605431D01*
X196932686Y-124591567D01*
X196737717Y-124575302D01*
X196513988Y-124557369D01*
X196270938Y-124538500D01*
X196018003Y-124519427D01*
X195764620Y-124500883D01*
X195520227Y-124483600D01*
X195294260Y-124468311D01*
X195096157Y-124455748D01*
X195092333Y-124455517D01*
X194692179Y-124454796D01*
X194298234Y-124498821D01*
X193920487Y-124584425D01*
X193568921Y-124708443D01*
X193253526Y-124867710D01*
X192984285Y-125059060D01*
X192878379Y-125157293D01*
X192787033Y-125244270D01*
X192708965Y-125308156D01*
X192658942Y-125337067D01*
X192654276Y-125337648D01*
X192610512Y-125314330D01*
X192536794Y-125254031D01*
X192448014Y-125169097D01*
X192435606Y-125156333D01*
X192223211Y-124974603D01*
X191955913Y-124809919D01*
X191644588Y-124668474D01*
X191470119Y-124606553D01*
X191233125Y-124538224D01*
X191001749Y-124490782D01*
X190760543Y-124462811D01*
X190494059Y-124452897D01*
X190186849Y-124459625D01*
X189984930Y-124470532D01*
X189747156Y-124486086D01*
X189492947Y-124503756D01*
X189232347Y-124522744D01*
X188975396Y-124542252D01*
X188732138Y-124561481D01*
X188512612Y-124579635D01*
X188326862Y-124595913D01*
X188184929Y-124609519D01*
X188096855Y-124619653D01*
X188084000Y-124621624D01*
X187992333Y-124637333D01*
X187992333Y-124245545D01*
X188325666Y-124245545D01*
X188517333Y-124224842D01*
X188728316Y-124204339D01*
X188979720Y-124183563D01*
X189256130Y-124163456D01*
X189542133Y-124144960D01*
X189822315Y-124129016D01*
X190081261Y-124116566D01*
X190303558Y-124108553D01*
X190463651Y-124105908D01*
X190873171Y-124122789D01*
X191244232Y-124175878D01*
X191596135Y-124268093D01*
X191646003Y-124284642D01*
X191811763Y-124347197D01*
X191986009Y-124423083D01*
X192149127Y-124502895D01*
X192281506Y-124577226D01*
X192342333Y-124618577D01*
X192402235Y-124658435D01*
X192434000Y-124671273D01*
X192437644Y-124638874D01*
X192441128Y-124544472D01*
X192444415Y-124392730D01*
X192447466Y-124188311D01*
X192450242Y-123935879D01*
X192452706Y-123640097D01*
X192454818Y-123305628D01*
X192456542Y-122937135D01*
X192457838Y-122539282D01*
X192458669Y-122116732D01*
X192458996Y-121674148D01*
X192459000Y-121622433D01*
X192859000Y-121622433D01*
X192859134Y-122067041D01*
X192859526Y-122492168D01*
X192860155Y-122893149D01*
X192861002Y-123265320D01*
X192862047Y-123604013D01*
X192863273Y-123904565D01*
X192864658Y-124162309D01*
X192866184Y-124372580D01*
X192867832Y-124530713D01*
X192869582Y-124632041D01*
X192871414Y-124671901D01*
X192871628Y-124672333D01*
X192904344Y-124656449D01*
X192978070Y-124614784D01*
X193076927Y-124556312D01*
X193078160Y-124555570D01*
X193460073Y-124363708D01*
X193879939Y-124224032D01*
X194332636Y-124137848D01*
X194813043Y-124106458D01*
X194842333Y-124106346D01*
X195021928Y-124109288D01*
X195252331Y-124117621D01*
X195517986Y-124130405D01*
X195803334Y-124146698D01*
X196092820Y-124165558D01*
X196370885Y-124186045D01*
X196621973Y-124207216D01*
X196800666Y-124224842D01*
X196992333Y-124245545D01*
X196992333Y-120792272D01*
X196992185Y-120216499D01*
X196991716Y-119704192D01*
X196990887Y-119252151D01*
X196989659Y-118857177D01*
X196987995Y-118516068D01*
X196985854Y-118225627D01*
X196983199Y-117982651D01*
X196979991Y-117783943D01*
X196976192Y-117626301D01*
X196971762Y-117506526D01*
X196966664Y-117421417D01*
X196960858Y-117367776D01*
X196954306Y-117342401D01*
X196950666Y-117339313D01*
X196901517Y-117345745D01*
X196803690Y-117362766D01*
X196673782Y-117387399D01*
X196592333Y-117403585D01*
X196116657Y-117487865D01*
X195627551Y-117550060D01*
X195103442Y-117592718D01*
X194892333Y-117604253D01*
X194655521Y-117616910D01*
X194471396Y-117630312D01*
X194325987Y-117646274D01*
X194205322Y-117666614D01*
X194095430Y-117693145D01*
X194009000Y-117719053D01*
X193731664Y-117830987D01*
X193474965Y-117986194D01*
X193225556Y-118193497D01*
X193096968Y-118322014D01*
X192859000Y-118572534D01*
X192859000Y-121622433D01*
X192459000Y-121622433D01*
X192459000Y-118572534D01*
X192221031Y-118322014D01*
X191970203Y-118084770D01*
X191718887Y-117904118D01*
X191453735Y-117771234D01*
X191309000Y-117719053D01*
X191197860Y-117686489D01*
X191086750Y-117661522D01*
X190961696Y-117642334D01*
X190808729Y-117627112D01*
X190613877Y-117614038D01*
X190425666Y-117604253D01*
X189882761Y-117568299D01*
X189382993Y-117513768D01*
X188904787Y-117438113D01*
X188725666Y-117403585D01*
X188584955Y-117375963D01*
X188466933Y-117354268D01*
X188388196Y-117341478D01*
X188367333Y-117339313D01*
X188360386Y-117351509D01*
X188354204Y-117390341D01*
X188348750Y-117459008D01*
X188343984Y-117560711D01*
X188339868Y-117698649D01*
X188336363Y-117876023D01*
X188333432Y-118096031D01*
X188331034Y-118361876D01*
X188329131Y-118676755D01*
X188327686Y-119043869D01*
X188326658Y-119466419D01*
X188326011Y-119947603D01*
X188325704Y-120490622D01*
X188325666Y-120792272D01*
X188325666Y-124245545D01*
X187992333Y-124245545D01*
X187992333Y-116864557D01*
X188067333Y-116886474D01*
G37*
%TD*%
D12*
%TO.C,J3*%
X190336257Y-100395134D03*
D13*
X188540206Y-102191185D03*
X188540206Y-98599083D03*
X186744155Y-100395134D03*
X186744155Y-96803032D03*
X184948103Y-98599083D03*
X184948103Y-95006980D03*
X183152052Y-96803032D03*
X183152052Y-93210929D03*
X181356001Y-95006980D03*
X181356001Y-91414878D03*
X179559950Y-93210929D03*
X179559950Y-89618827D03*
X177763898Y-91414878D03*
X177763898Y-87822775D03*
X175967847Y-89618827D03*
X175967847Y-86026724D03*
X174171796Y-87822775D03*
X174171796Y-84230673D03*
X172375745Y-86026724D03*
%TD*%
D14*
%TO.C,VCC*%
X104902000Y-82804000D03*
%TD*%
D12*
%TO.C,J2*%
X170524257Y-98617134D03*
D13*
X168728206Y-100413185D03*
X168728206Y-96821083D03*
X166932155Y-98617134D03*
X166932155Y-95025032D03*
X165136103Y-96821083D03*
X165136103Y-93228980D03*
X163340052Y-95025032D03*
X163340052Y-91432929D03*
X161544001Y-93228980D03*
X161544001Y-89636878D03*
X159747950Y-91432929D03*
X159747950Y-87840827D03*
X157951898Y-89636878D03*
X157951898Y-86044775D03*
X156155847Y-87840827D03*
X156155847Y-84248724D03*
X154359796Y-86044775D03*
X154359796Y-82452673D03*
X152563745Y-84248724D03*
%TD*%
D15*
%TO.C,C1*%
X105156000Y-92352500D03*
X105156000Y-90527500D03*
%TD*%
D16*
%TO.C,CON1*%
X109180000Y-148340000D03*
X111680000Y-148340000D03*
X114180000Y-148340000D03*
X116680000Y-148340000D03*
D17*
X123930000Y-148340000D03*
D16*
X126680000Y-148340000D03*
X129180000Y-148340000D03*
X131680000Y-148340000D03*
X134180000Y-148340000D03*
X136680000Y-148340000D03*
X139180000Y-148340000D03*
X141680000Y-148340000D03*
X144180000Y-148340000D03*
X146680000Y-148340000D03*
X149180000Y-148340000D03*
X151680000Y-148340000D03*
X154180000Y-148340000D03*
X156680000Y-148340000D03*
X159180000Y-148340000D03*
X161680000Y-148340000D03*
X164180000Y-148340000D03*
X166680000Y-148340000D03*
X169180000Y-148340000D03*
X171680000Y-148340000D03*
X174180000Y-148340000D03*
X176680000Y-148340000D03*
D17*
X179430000Y-148340000D03*
D16*
X186680000Y-148340000D03*
X189180000Y-148340000D03*
X191680000Y-148340000D03*
X194180000Y-148340000D03*
%TD*%
D15*
%TO.C,R1*%
X108458000Y-96670500D03*
X108458000Y-94845500D03*
%TD*%
D12*
%TO.C,J2*%
X152654000Y-98552000D03*
D13*
X150857949Y-100348051D03*
X150857949Y-96755949D03*
X149061898Y-98552000D03*
X149061898Y-94959898D03*
X147265846Y-96755949D03*
X147265846Y-93163846D03*
X145469795Y-94959898D03*
X145469795Y-91367795D03*
X143673744Y-93163846D03*
X143673744Y-89571744D03*
X141877693Y-91367795D03*
X141877693Y-87775693D03*
X140081641Y-89571744D03*
X140081641Y-85979641D03*
X138285590Y-87775693D03*
X138285590Y-84183590D03*
X136489539Y-85979641D03*
X136489539Y-82387539D03*
X134693488Y-84183590D03*
%TD*%
D14*
%TO.C,CLK*%
X192278000Y-86360000D03*
%TD*%
D18*
%TO.C,D1*%
X105156000Y-96695500D03*
X105156000Y-94820500D03*
%TD*%
D15*
%TO.C,C2*%
X108458000Y-92352500D03*
X108458000Y-90527500D03*
%TD*%
D12*
%TO.C,J1*%
X134620000Y-98552000D03*
D13*
X132823949Y-100348051D03*
X132823949Y-96755949D03*
X131027898Y-98552000D03*
X131027898Y-94959898D03*
X129231846Y-96755949D03*
X129231846Y-93163846D03*
X127435795Y-94959898D03*
X127435795Y-91367795D03*
X125639744Y-93163846D03*
X125639744Y-89571744D03*
X123843693Y-91367795D03*
X123843693Y-87775693D03*
X122047641Y-89571744D03*
X122047641Y-85979641D03*
X120251590Y-87775693D03*
X120251590Y-84183590D03*
X118455539Y-85979641D03*
X118455539Y-82387539D03*
X116659488Y-84183590D03*
%TD*%
D14*
%TO.C,CICCLK*%
X197358000Y-82550000D03*
%TD*%
%TO.C,EXPCLK*%
X197358000Y-89662000D03*
%TD*%
D19*
%TO.C,CON2*%
X109192000Y-71414000D03*
X111692000Y-71414000D03*
X114192000Y-71414000D03*
X116692000Y-71414000D03*
X124392000Y-71414000D03*
X126892000Y-71414000D03*
X129392000Y-71414000D03*
X131892000Y-71414000D03*
X134392000Y-71414000D03*
X136892000Y-71414000D03*
X139392000Y-71414000D03*
X141892000Y-71414000D03*
X144392000Y-71414000D03*
X146892000Y-71414000D03*
X149392000Y-71414000D03*
X151892000Y-71414000D03*
X154392000Y-71414000D03*
X156892000Y-71414000D03*
X159392000Y-71414000D03*
X161892000Y-71414000D03*
X164392000Y-71414000D03*
X166892000Y-71414000D03*
X169392000Y-71414000D03*
X171892000Y-71414000D03*
X174392000Y-71414000D03*
X176892000Y-71414000D03*
X179392000Y-71414000D03*
X187092000Y-71414000D03*
X189592000Y-71414000D03*
X192092000Y-71414000D03*
X194592000Y-71414000D03*
X109192000Y-76414000D03*
X111692000Y-76414000D03*
X114192000Y-76414000D03*
X116692000Y-76414000D03*
X124392000Y-76414000D03*
X126892000Y-76414000D03*
X129392000Y-76414000D03*
X131892000Y-76414000D03*
X134392000Y-76414000D03*
X136892000Y-76414000D03*
X139392000Y-76414000D03*
X141892000Y-76414000D03*
X144392000Y-76414000D03*
X146892000Y-76414000D03*
X149392000Y-76414000D03*
X151892000Y-76414000D03*
X154392000Y-76414000D03*
X156892000Y-76414000D03*
X159392000Y-76414000D03*
X161892000Y-76414000D03*
X164392000Y-76414000D03*
X166892000Y-76414000D03*
X169392000Y-76414000D03*
X171892000Y-76414000D03*
X174392000Y-76414000D03*
X176892000Y-76414000D03*
X179392000Y-76414000D03*
X187092000Y-76414000D03*
X189592000Y-76414000D03*
X192092000Y-76414000D03*
X194592000Y-76414000D03*
%TD*%
M02*
